<svg width="133" height="29" viewBox="0 0 133 29" fill="none" xmlns="http://www.w3.org/2000/svg">
<path d="M46.28 23L46.256 12.92L41.312 21.224H39.56L34.64 13.136V23H30.992V6.2H34.208L40.496 16.64L46.688 6.2H49.88L49.928 23H46.28ZM62.0499 23.288C60.3059 23.288 58.7299 22.912 57.3219 22.16C55.9299 21.408 54.8339 20.376 54.0339 19.064C53.2499 17.736 52.8579 16.248 52.8579 14.6C52.8579 12.952 53.2499 11.472 54.0339 10.16C54.8339 8.832 55.9299 7.792 57.3219 7.04C58.7299 6.288 60.3059 5.912 62.0499 5.912C63.7939 5.912 65.3619 6.288 66.7539 7.04C68.1459 7.792 69.2419 8.832 70.0419 10.16C70.8419 11.472 71.2419 12.952 71.2419 14.6C71.2419 16.248 70.8419 17.736 70.0419 19.064C69.2419 20.376 68.1459 21.408 66.7539 22.16C65.3619 22.912 63.7939 23.288 62.0499 23.288ZM62.0499 19.976C63.0419 19.976 63.9379 19.752 64.7379 19.304C65.5379 18.84 66.1619 18.2 66.6099 17.384C67.0739 16.568 67.3059 15.64 67.3059 14.6C67.3059 13.56 67.0739 12.632 66.6099 11.816C66.1619 11 65.5379 10.368 64.7379 9.92C63.9379 9.456 63.0419 9.224 62.0499 9.224C61.0579 9.224 60.1619 9.456 59.3619 9.92C58.5619 10.368 57.9299 11 57.4659 11.816C57.0179 12.632 56.7939 13.56 56.7939 14.6C56.7939 15.64 57.0179 16.568 57.4659 17.384C57.9299 18.2 58.5619 18.84 59.3619 19.304C60.1619 19.752 61.0579 19.976 62.0499 19.976ZM89.7534 6.2L82.4814 23H78.6414L71.3934 6.2H75.5934L80.7054 18.2L85.8894 6.2H89.7534ZM107.66 6.2L100.388 23H96.5476L89.2996 6.2H93.4996L98.6116 18.2L103.796 6.2H107.66ZM109.062 6.2H112.95V23H109.062V6.2ZM127.521 23L123.465 17.168L119.481 23H115.017L121.233 14.456L115.329 6.2H119.745L123.609 11.648L127.401 6.2H131.601L125.745 14.312L132.009 23H127.521Z" fill="white"/>
<path d="M12 8C12 6.9 11.1 6 10 6H9V5C9 4.45 8.55 4 8 4H4C3.45 4 3 4.45 3 5V6H2C0.9 6 0 6.9 0 8V23C0 24.1 0.9 25 2 25H10C11.1 25 12 24.1 12 23H20V8H12ZM10 21H8V19H10V21ZM10 12H8V10H10V12ZM14 21H12V19H14V21ZM14 12H12V10H14V12ZM18 21H16V19H18V21ZM18 12H16V10H18V12Z" fill="#A42618"/>
</svg>
